<?xml version="1.0" encoding="iso-8859-1"?>
<!-- Generator: Adobe Illustrator 19.0.0, SVG Export Plug-In . SVG Version: 6.00 Build 0)  -->
<svg version="1.1" id="Capa_1" xmlns="http://www.w3.org/2000/svg" xmlns:xlink="http://www.w3.org/1999/xlink" x="0px" y="0px"
	 viewBox="0 0 512 512" style="enable-background:new 0 0 512 512;" xml:space="preserve">
<rect x="7.5" y="120.98" style="fill:#66BB6A;" width="497" height="270.04"/>
<rect x="7.5" y="120.98" style="fill:#58A15B;" width="76" height="270.04"/>
<path style="fill:#AED581;" d="M475.379,328.513V183.487c-14.676-6.849-26.534-18.708-33.383-33.383H70.005
	c-6.849,14.676-18.708,26.534-33.384,33.383v145.026c14.676,6.849,26.534,18.708,33.383,33.383h371.991
	C448.845,347.221,460.703,335.362,475.379,328.513z"/>
<g>
	<circle style="fill:#66BB6A;" cx="256" cy="256" r="70.19"/>
	<circle style="fill:#66BB6A;" cx="127.57" cy="256" r="25.997"/>
	<circle style="fill:#66BB6A;" cx="384.43" cy="256" r="25.997"/>
</g>
<path style="fill:#98BA71;" d="M70.005,150.103c-6.849,14.676-18.708,26.534-33.383,33.384v145.026
	c14.676,6.85,26.534,18.708,33.383,33.383H83.5V150.103H70.005z"/>
<path d="M7.5,398.518h497c4.142,0,7.5-3.358,7.5-7.5V120.982c0-4.142-3.358-7.5-7.5-7.5H7.5c-4.142,0-7.5,3.358-7.5,7.5v270.036
	C0,395.16,3.358,398.518,7.5,398.518z M15,128.482h482v255.036H15V128.482z"/>
<path d="M482.879,328.513V183.487c0-2.914-1.688-5.564-4.328-6.796c-13.084-6.106-23.653-16.675-29.759-29.759
	c-1.232-2.641-3.882-4.328-6.796-4.328H70.005c-2.914,0-5.564,1.688-6.796,4.328c-6.106,13.084-16.675,23.653-29.759,29.759
	c-2.641,1.232-4.328,3.882-4.328,6.796v145.026c0,2.914,1.688,5.564,4.328,6.796c13.084,6.106,23.652,16.675,29.759,29.759
	c1.232,2.641,3.882,4.328,6.796,4.328h306.002c4.142,0,7.5-3.358,7.5-7.5s-3.358-7.5-7.5-7.5H74.61
	c-7.028-12.854-17.635-23.462-30.489-30.489V188.093c12.854-7.027,23.462-17.635,30.49-30.489H437.39
	c7.027,12.854,17.635,23.461,30.489,30.489v135.814c-12.854,7.027-23.461,17.635-30.489,30.489h-31.383c-4.142,0-7.5,3.358-7.5,7.5
	s3.358,7.5,7.5,7.5h35.989c2.914,0,5.564-1.688,6.796-4.328c6.107-13.084,16.675-23.653,29.759-29.759
	C481.191,334.077,482.879,331.427,482.879,328.513z"/>
<circle cx="36.07" cy="149.55" r="9.18"/>
<circle cx="475.93" cy="149.55" r="9.18"/>
<circle cx="36.07" cy="362.45" r="9.18"/>
<circle cx="475.93" cy="362.45" r="9.18"/>
<path d="M199.094,214.266c-3.58-2.083-8.171-0.873-10.255,2.708c-6.884,11.824-10.523,25.319-10.523,39.026
	c0,42.836,34.85,77.686,77.685,77.686c42.836,0,77.686-34.85,77.686-77.686s-34.85-77.685-77.686-77.685
	c-16.431,0-32.149,5.084-45.456,14.703c-3.357,2.426-4.111,7.115-1.685,10.472s7.115,4.111,10.472,1.685
	c10.733-7.758,23.413-11.859,36.668-11.859c34.565,0,62.686,28.121,62.686,62.685c0,34.565-28.121,62.686-62.686,62.686
	c-34.564,0-62.685-28.121-62.685-62.686c0-11.059,2.935-21.944,8.486-31.479C203.885,220.942,202.673,216.35,199.094,214.266z"/>
<path d="M236.795,273.047c-0.971-0.755-2.266-1.187-3.561-1.187c-3.344,0-5.934,2.589-5.934,5.934c0,2.266,1.079,3.993,2.914,5.179
	c6.581,4.639,14.025,7.552,22.118,8.415v6.69c0,2.589,2.158,4.639,4.748,4.639c2.588,0,4.638-2.05,4.638-4.639v-6.474
	c13.702-1.295,22.982-9.171,22.982-21.039c0-11.544-7.015-18.125-23.413-22.226v-20.715c3.668,0.863,7.336,2.481,11.113,4.747
	c1.078,0.647,2.158,0.971,3.237,0.971c3.344,0,6.041-2.589,6.041-5.934c0-2.589-1.51-4.208-3.236-5.179
	c-4.964-3.129-10.358-5.179-16.724-5.934v-2.374c0-2.589-2.05-4.639-4.638-4.639c-2.59,0-4.748,2.05-4.748,4.639v2.266
	c-13.487,1.079-22.657,9.063-22.657,20.607c0,12.192,7.336,18.126,23.089,22.227v21.254
	C246.829,279.197,241.866,276.715,236.795,273.047z M261.287,261.071c8.308,2.589,10.681,5.502,10.681,10.249
	c0,5.179-3.775,8.632-10.681,9.387V261.071z M242.405,236.04c0-4.748,3.453-8.416,10.358-9.063v19.097
	C244.455,243.376,242.405,240.571,242.405,236.04z"/>
<path d="M94.076,256c0,18.47,15.026,33.497,33.497,33.497S161.069,274.47,161.069,256s-15.026-33.497-33.497-33.497
	S94.076,237.53,94.076,256z M146.069,256c0,10.199-8.297,18.497-18.497,18.497S109.075,266.2,109.075,256
	s8.297-18.497,18.497-18.497S146.069,245.801,146.069,256z"/>
<path d="M417.924,256c0-18.47-15.026-33.497-33.497-33.497S350.931,237.53,350.931,256s15.026,33.497,33.497,33.497
	S417.924,274.47,417.924,256z M384.428,274.496c-10.199,0-18.497-8.297-18.497-18.497s8.297-18.497,18.497-18.497
	s18.497,8.297,18.497,18.497S394.627,274.496,384.428,274.496z"/>
<g>
</g>
<g>
</g>
<g>
</g>
<g>
</g>
<g>
</g>
<g>
</g>
<g>
</g>
<g>
</g>
<g>
</g>
<g>
</g>
<g>
</g>
<g>
</g>
<g>
</g>
<g>
</g>
<g>
</g>
</svg>
